# xmcd
#
# Track frame offsets:
# 150
# 14946
# 31062
# 52892
# 69450
# 87276
# 104073
# 126184
# 144417
# 165176
# 181951
# 200762
# 214280
# 233407
# 249006
# 271731
# 291930
# 310426
#
# Disc length: 4333 seconds
#
#
# Revision: 0
# Processed by: cddbd v1.5.2PL0 Copyright (c) Steve Scherf et al.
# Submitted via: Nero 7, 11, 10, 0 
#
DISCID=fe10eb12
DTITLE=Eddie Zip - A Night In New Orleans
DYEAR=2007
DGENRE=Blues
TTITLE0=Girl In Your Life
TTITLE1=Power To Change
TTITLE2=Hey Pocky Away
TTITLE3=Night In New Orleans
TTITLE4=Shake A Leg
TTITLE5=New Orleans Piano
TTITLE6=The Letter
TTITLE7=Party Line
TTITLE8=Like Your Kinda Love
TTITLE9=Love Her Back
TTITLE10=Neighborhood
TTITLE11=All These Things
TTITLE12=Sunset Boulevard
TTITLE13=Ridiculous
TTITLE14=Rappin Paper
TTITLE15=Fonk Out The Swamp
TTITLE16=We Doin' Alright
TTITLE17=Some Kinda Way
EXTD=
EXTT0=Girl In Your Life
EXTT1=Power To Change
EXTT2=Hey Pocky Away
EXTT3=Night In New Orleans
EXTT4=Shake A Leg
EXTT5=New Orleans Piano
EXTT6=The Letter
EXTT7=Party Line
EXTT8=Like Your Kinda Love
EXTT9=Love Her Back
EXTT10=Neighborhood
EXTT11=All These Things
EXTT12=Sunset Boulevard
EXTT13=Ridiculous
EXTT14=Rappin Paper
EXTT15=Fonk Out The Swamp
EXTT16=We Doin' Alright
EXTT17=Some Kinda Way
PLAYORDER=
